<?xml version="1.0" encoding="utf-8"?>
<!-- Generator: Adobe Illustrator 22.0.1, SVG Export Plug-In . SVG Version: 6.00 Build 0)  -->
<svg version="1.1" id="Capa_1" xmlns="http://www.w3.org/2000/svg" xmlns:xlink="http://www.w3.org/1999/xlink" x="0px" y="0px"
	 viewBox="0 0 28.2 28.2" style="enable-background:new 0 0 28.2 28.2;" xml:space="preserve">
<style type="text/css">
	.st0{fill:#F6F6F6;}
	.st1{fill:#020203;}
</style>
<circle class="st0" cx="14.2" cy="14.3" r="13.5"/>
<g>
	<path class="st1" d="M15,9.3c0.2-0.2,0.5-0.2,0.7,0l0.3,0.3c0.2,0.2,0.2,0.5,0,0.7l-4,3.9l4,3.9c0.2,0.2,0.2,0.5,0,0.7L15.6,19
		c-0.2,0.2-0.5,0.2-0.7,0l-4.6-4.5c-0.2-0.2-0.2-0.5,0-0.7L15,9.3z"/>
</g>
<g>
	<path class="st1" d="M14.1,28.2C6.3,28.2,0,21.9,0,14.1S6.3,0,14.1,0s14.1,6.3,14.1,14.1S21.9,28.2,14.1,28.2z M14.1,1
		C6.9,1,1,6.9,1,14.1c0,7.2,5.9,13.1,13.1,13.1s13.1-5.9,13.1-13.1C27.2,6.9,21.4,1,14.1,1z"/>
</g>
</svg>
