<?xml version="1.0" encoding="utf-8"?>
<!-- Generator: Adobe Illustrator 22.1.0, SVG Export Plug-In . SVG Version: 6.00 Build 0)  -->
<svg version="1.1" id="Capa_1" xmlns="http://www.w3.org/2000/svg" xmlns:xlink="http://www.w3.org/1999/xlink" x="0px" y="0px"
	 viewBox="0 0 420 208" style="enable-background:new 0 0 420 208;" xml:space="preserve">
<style type="text/css">
	.st0{fill:#1D1D1B;}
	.st1{fill:#FFFFFF;}
</style>
<g>
	<polygon class="st0" points="235.4,54.5 204.5,72.4 173.6,54.5 173.6,18.8 204.5,1 235.4,18.8 	"/>
	<path class="st1" d="M184.4,53.9v-3.6l-2,3.3c-0.2,0.4,0,0.8,0.5,1c0.1,0,0.3,0.1,0.4,0.1c0.4,0,0.8-0.2,1-0.5l0.1-0.2
		C184.4,54,184.4,53.9,184.4,53.9z"/>
	<path class="st1" d="M204.5,2.8l-29.3,16.9v33.8l29.3,16.9l29.3-16.9V19.8L204.5,2.8z M175.7,20l28.8-16.7L233.4,20v33.3L204.5,70
		l-28.8-16.6V20z"/>
	<path class="st1" d="M226.6,53.6l-2-3.3v3.6c0,0.1,0,0.1,0,0.2l0.1,0.1c0.2,0.3,0.6,0.5,1,0.5c0.1,0,0.3,0,0.4-0.1
		C226.6,54.4,226.9,54,226.6,53.6z"/>
	<path class="st1" d="M219.3,41.1l-13.6-23c-0.2-0.3-0.5-0.5-1-0.5l0,0c-0.4,0-0.8,0.2-1,0.5l-13.9,23.1v3.8l14.9-24.7L219.3,45
		V41.1z"/>
	<path class="st1" d="M204.4,45.7l-6.4-10.9l-1.1,1.9l6.6,11.2c0.2,0.3,0.5,0.5,1,0.5c0,0,0,0,0,0c0.4,0,0.8-0.2,1-0.5l7-11.5
		l-1.1-1.9L204.4,45.7z"/>
	<path class="st1" d="M187.1,17.7c-0.1,0-0.1,0-0.2,0c-0.5,0.1-0.8,0.4-0.8,0.7v35.4c0,0.4,0.5,0.8,1,0.8c0.6,0,1-0.3,1-0.8V22.1
		l5.6,9.4l1.1-1.9l-6.8-11.5C187.9,17.9,187.5,17.7,187.1,17.7z"/>
	<path class="st1" d="M223,18.5c0-0.4-0.3-0.7-0.8-0.7c-0.1,0-0.1,0-0.2,0c-0.4,0-0.8,0.2-1,0.5l-6.8,11.2l1.1,1.9l5.5-9.2v31.8
		c0,0.4,0.5,0.8,1,0.8c0.6,0,1-0.3,1-0.8V18.5z"/>
</g>
<g>
	<g>
		<path d="M2.3,186.4h1.4l13.5,17v-17h1.4V206h-1.1L3.7,188.6V206H2.3V186.4z"/>
		<path d="M30.1,206.3c-0.9,0-1.8-0.2-2.7-0.5c-0.9-0.4-1.6-0.9-2.2-1.5s-1.2-1.4-1.5-2.3c-0.4-0.9-0.6-1.9-0.6-3v-0.1
			c0-1,0.2-2,0.5-2.9c0.3-0.9,0.8-1.7,1.4-2.4c0.6-0.7,1.3-1.2,2.1-1.6c0.8-0.4,1.7-0.6,2.7-0.6c1,0,1.9,0.2,2.7,0.6
			c0.8,0.4,1.5,0.9,2.1,1.6c0.6,0.7,1,1.5,1.3,2.4c0.3,0.9,0.5,1.9,0.5,3c0,0.1,0,0.2,0,0.3c0,0.1,0,0.2,0,0.3H24.6
			c0.1,0.9,0.3,1.7,0.6,2.4c0.3,0.7,0.8,1.3,1.3,1.8s1.1,0.8,1.7,1.1c0.6,0.2,1.3,0.4,2,0.4c1.1,0,2.1-0.2,2.8-0.6s1.5-1,2.1-1.6
			l1,0.8c-0.7,0.8-1.6,1.4-2.5,1.9C32.6,206.1,31.5,206.3,30.1,206.3z M35,198.2c-0.1-0.7-0.2-1.4-0.4-2.1c-0.2-0.7-0.6-1.2-1-1.8
			c-0.4-0.5-0.9-0.9-1.6-1.2c-0.6-0.3-1.3-0.5-2.2-0.5c-0.7,0-1.4,0.1-2,0.4c-0.6,0.3-1.2,0.7-1.6,1.2s-0.8,1.1-1.1,1.8
			c-0.3,0.7-0.5,1.4-0.5,2.2H35z"/>
		<path d="M39.2,191.7h1.5l4.3,12.5l4.3-12.6h1.1l4.3,12.6l4.3-12.5h1.5l-5.2,14.4h-1.2l-4.2-12.2l-4.3,12.2h-1.2L39.2,191.7z"/>
		<path d="M73.2,186.4h1.4l7.9,11.6l7.9-11.6h1.4V206h-1.5v-17l-7.7,11.3h-0.1L74.6,189v17h-1.4V186.4z"/>
		<path d="M103.2,206.3c-0.9,0-1.8-0.2-2.7-0.5c-0.9-0.4-1.6-0.9-2.2-1.5s-1.2-1.4-1.5-2.3c-0.4-0.9-0.6-1.9-0.6-3v-0.1
			c0-1,0.2-2,0.5-2.9c0.3-0.9,0.8-1.7,1.4-2.4c0.6-0.7,1.3-1.2,2.1-1.6c0.8-0.4,1.7-0.6,2.7-0.6c1,0,1.9,0.2,2.7,0.6
			s1.5,0.9,2.1,1.6c0.6,0.7,1,1.5,1.3,2.4c0.3,0.9,0.5,1.9,0.5,3c0,0.1,0,0.2,0,0.3c0,0.1,0,0.2,0,0.3H97.6c0.1,0.9,0.3,1.7,0.6,2.4
			c0.3,0.7,0.8,1.3,1.3,1.8s1.1,0.8,1.7,1.1c0.6,0.2,1.3,0.4,2,0.4c1.1,0,2.1-0.2,2.8-0.6s1.5-1,2.1-1.6l1,0.8
			c-0.7,0.8-1.6,1.4-2.5,1.9C105.7,206.1,104.5,206.3,103.2,206.3z M108,198.2c-0.1-0.7-0.2-1.4-0.4-2.1c-0.2-0.7-0.6-1.2-1-1.8
			c-0.4-0.5-0.9-0.9-1.6-1.2c-0.6-0.3-1.3-0.5-2.2-0.5c-0.7,0-1.4,0.1-2,0.4c-0.6,0.3-1.2,0.7-1.6,1.2s-0.8,1.1-1.1,1.8
			c-0.3,0.7-0.5,1.4-0.5,2.2H108z"/>
		<path d="M118.2,206.3c-0.6,0-1.1-0.1-1.6-0.2c-0.5-0.1-0.9-0.4-1.3-0.7s-0.6-0.7-0.9-1.2c-0.2-0.5-0.3-1.1-0.3-1.7V193h-2.1v-1.3
			h2.1v-4.6h1.4v4.6h5v1.3h-5v9.2c0,1,0.3,1.7,0.8,2.1s1.2,0.6,2.1,0.6c0.4,0,0.7,0,1-0.1c0.3-0.1,0.7-0.2,1.1-0.4v1.3
			c-0.4,0.2-0.7,0.3-1.1,0.4C119.1,206.2,118.7,206.3,118.2,206.3z"/>
		<path d="M124.7,185.6h1.4v8.8c0.5-0.8,1.1-1.5,2-2.1c0.8-0.6,1.9-0.9,3.2-0.9c0.9,0,1.7,0.1,2.4,0.4c0.7,0.3,1.3,0.7,1.8,1.2
			c0.5,0.5,0.9,1.1,1.1,1.9c0.3,0.7,0.4,1.5,0.4,2.4v8.7h-1.4v-8.5c0-1.5-0.4-2.7-1.2-3.5c-0.8-0.9-1.9-1.3-3.4-1.3
			c-0.7,0-1.4,0.1-2,0.4c-0.6,0.3-1.1,0.6-1.6,1s-0.8,1-1,1.6c-0.3,0.6-0.4,1.3-0.4,2.1v8.2h-1.4V185.6z"/>
		<path d="M148.1,206.3c-1.1,0-2-0.2-2.9-0.6c-0.9-0.4-1.7-0.9-2.3-1.6c-0.7-0.7-1.2-1.5-1.5-2.3c-0.4-0.9-0.5-1.8-0.5-2.9v-0.1
			c0-1,0.2-2,0.5-2.9c0.4-0.9,0.9-1.7,1.5-2.4c0.7-0.7,1.4-1.2,2.3-1.6c0.9-0.4,1.9-0.6,2.9-0.6c1.1,0,2,0.2,2.9,0.6
			c0.9,0.4,1.7,0.9,2.3,1.6c0.7,0.7,1.2,1.5,1.5,2.3c0.4,0.9,0.5,1.8,0.5,2.9v0.1c0,1-0.2,2-0.5,2.9c-0.4,0.9-0.9,1.7-1.5,2.4
			c-0.7,0.7-1.4,1.2-2.3,1.6S149.2,206.3,148.1,206.3z M148.2,205c0.8,0,1.6-0.2,2.3-0.5c0.7-0.3,1.3-0.8,1.9-1.3
			c0.5-0.5,0.9-1.2,1.2-1.9s0.4-1.5,0.4-2.4v-0.1c0-0.9-0.1-1.7-0.4-2.4c-0.3-0.8-0.7-1.4-1.3-2c-0.5-0.6-1.2-1-1.9-1.3
			c-0.7-0.3-1.5-0.5-2.3-0.5c-0.8,0-1.6,0.2-2.3,0.5c-0.7,0.3-1.3,0.8-1.9,1.3c-0.5,0.5-0.9,1.2-1.2,1.9s-0.4,1.5-0.4,2.4v0.1
			c0,0.9,0.1,1.7,0.4,2.4c0.3,0.8,0.7,1.4,1.2,2c0.5,0.6,1.2,1,1.9,1.3C146.6,204.9,147.3,205,148.2,205z"/>
		<path d="M165.7,206.3c-0.9,0-1.7-0.2-2.5-0.5c-0.8-0.3-1.6-0.8-2.2-1.5c-0.7-0.6-1.2-1.4-1.6-2.3s-0.6-2-0.6-3.1v-0.1
			c0-1.2,0.2-2.2,0.6-3.1c0.4-0.9,0.9-1.7,1.6-2.3c0.7-0.6,1.4-1.1,2.2-1.5c0.8-0.3,1.7-0.5,2.5-0.5c0.7,0,1.4,0.1,2,0.3
			c0.6,0.2,1.1,0.4,1.6,0.8c0.5,0.3,0.9,0.7,1.3,1.1s0.7,0.8,1,1.3v-9.2h1.4V206h-1.4v-3.2c-0.3,0.5-0.7,0.9-1,1.3
			c-0.4,0.4-0.8,0.8-1.3,1.1c-0.5,0.3-1,0.6-1.6,0.8C167.1,206.2,166.4,206.3,165.7,206.3z M165.8,205c0.7,0,1.5-0.1,2.2-0.4
			s1.3-0.7,1.9-1.3c0.5-0.5,1-1.2,1.3-1.9c0.3-0.7,0.5-1.6,0.5-2.5v-0.1c0-0.9-0.2-1.7-0.5-2.5c-0.3-0.8-0.8-1.4-1.3-1.9
			c-0.5-0.5-1.2-0.9-1.9-1.2c-0.7-0.3-1.4-0.4-2.2-0.4c-0.8,0-1.5,0.1-2.2,0.4c-0.7,0.3-1.3,0.7-1.8,1.2c-0.5,0.5-0.9,1.2-1.2,1.9
			s-0.4,1.6-0.4,2.6v0.1c0,0.9,0.1,1.8,0.4,2.5c0.3,0.8,0.7,1.4,1.2,1.9s1.1,0.9,1.8,1.2C164.4,204.9,165.1,205,165.8,205z"/>
		<path d="M177.8,203.6h1.8v2.4h-1.8V203.6z"/>
		<path d="M198.7,187.7h-6.8v-1.3H207v1.3h-6.8V206h-1.5V187.7z"/>
		<path d="M211.1,191.7h1.4v4.1c0.3-0.6,0.6-1.2,1.1-1.8c0.4-0.5,0.9-1,1.5-1.4c0.5-0.4,1.1-0.7,1.8-0.9c0.6-0.2,1.3-0.3,2-0.3v1.5
			h-0.1c-0.8,0-1.6,0.2-2.3,0.5c-0.7,0.3-1.4,0.8-2,1.4c-0.6,0.6-1,1.4-1.4,2.2c-0.3,0.9-0.5,1.9-0.5,3.1v5.8h-1.4V191.7z"/>
		<path d="M226.6,206.3c-0.7,0-1.3-0.1-2-0.3c-0.7-0.2-1.2-0.5-1.8-0.8c-0.5-0.4-0.9-0.8-1.3-1.4s-0.5-1.2-0.5-2v-0.1
			c0-0.7,0.2-1.4,0.5-2c0.3-0.6,0.7-1.1,1.3-1.5c0.5-0.4,1.2-0.7,2-0.9c0.8-0.2,1.6-0.3,2.5-0.3c1,0,1.9,0.1,2.6,0.2
			c0.7,0.1,1.4,0.3,2.1,0.4v-0.6c0-1.4-0.4-2.5-1.2-3.3c-0.8-0.7-2-1.1-3.5-1.1c-0.9,0-1.7,0.1-2.4,0.3c-0.7,0.2-1.4,0.5-2.1,0.8
			l-0.5-1.2c0.8-0.4,1.6-0.7,2.4-0.9c0.8-0.2,1.7-0.3,2.7-0.3c2,0,3.5,0.5,4.5,1.6c1,1,1.5,2.3,1.5,4v8.9H232v-2.4
			c-0.2,0.3-0.5,0.7-0.9,1c-0.3,0.3-0.7,0.6-1.2,0.9c-0.4,0.3-1,0.5-1.5,0.6C227.9,206.3,227.3,206.3,226.6,206.3z M226.7,205
			c0.7,0,1.4-0.1,2.1-0.3c0.7-0.2,1.2-0.5,1.7-0.9c0.5-0.4,0.9-0.8,1.2-1.4s0.4-1.1,0.4-1.8V199c-0.6-0.1-1.3-0.3-2.1-0.4
			c-0.8-0.1-1.7-0.2-2.7-0.2c-1.5,0-2.7,0.3-3.5,0.9s-1.2,1.4-1.2,2.4v0.1c0,0.5,0.1,1,0.3,1.4c0.2,0.4,0.5,0.7,0.9,1
			c0.4,0.3,0.8,0.5,1.3,0.6C225.6,204.9,226.1,205,226.7,205z"/>
		<path d="M244.3,206.3c-0.9,0-1.7-0.2-2.5-0.5c-0.8-0.3-1.6-0.8-2.2-1.5c-0.7-0.6-1.2-1.4-1.6-2.3s-0.6-2-0.6-3.1v-0.1
			c0-1.2,0.2-2.2,0.6-3.1c0.4-0.9,0.9-1.7,1.6-2.3c0.7-0.6,1.4-1.1,2.2-1.5c0.8-0.3,1.7-0.5,2.5-0.5c0.7,0,1.4,0.1,2,0.3
			c0.6,0.2,1.1,0.4,1.6,0.8c0.5,0.3,0.9,0.7,1.3,1.1c0.4,0.4,0.7,0.8,1,1.3v-9.2h1.4V206h-1.4v-3.2c-0.3,0.5-0.7,0.9-1,1.3
			s-0.8,0.8-1.3,1.1c-0.5,0.3-1,0.6-1.6,0.8C245.7,206.2,245,206.3,244.3,206.3z M244.4,205c0.7,0,1.5-0.1,2.2-0.4
			c0.7-0.3,1.3-0.7,1.9-1.3c0.5-0.5,1-1.2,1.3-1.9c0.3-0.7,0.5-1.6,0.5-2.5v-0.1c0-0.9-0.2-1.7-0.5-2.5c-0.3-0.8-0.8-1.4-1.3-1.9
			s-1.2-0.9-1.9-1.2c-0.7-0.3-1.4-0.4-2.2-0.4c-0.8,0-1.5,0.1-2.2,0.4c-0.7,0.3-1.3,0.7-1.8,1.2c-0.5,0.5-0.9,1.2-1.2,1.9
			s-0.4,1.6-0.4,2.6v0.1c0,0.9,0.1,1.8,0.4,2.5c0.3,0.8,0.7,1.4,1.2,1.9s1.1,0.9,1.8,1.2C243,204.9,243.7,205,244.4,205z"/>
		<path d="M256.8,186.2h1.7v1.9h-1.7V186.2z M257,191.7h1.4V206H257V191.7z"/>
		<path d="M268.5,206.3c-0.6,0-1.1-0.1-1.6-0.2c-0.5-0.1-0.9-0.4-1.3-0.7c-0.4-0.3-0.6-0.7-0.9-1.2s-0.3-1.1-0.3-1.7V193h-2.1v-1.3
			h2.1v-4.6h1.4v4.6h5v1.3h-5v9.2c0,1,0.3,1.7,0.8,2.1s1.2,0.6,2.1,0.6c0.4,0,0.7,0,1-0.1c0.3-0.1,0.7-0.2,1.1-0.4v1.3
			c-0.4,0.2-0.7,0.3-1.1,0.4S268.9,206.3,268.5,206.3z"/>
		<path d="M274.9,186.2h1.7v1.9h-1.7V186.2z M275.1,191.7h1.4V206h-1.4V191.7z"/>
		<path d="M288.2,206.3c-1.1,0-2-0.2-2.9-0.6c-0.9-0.4-1.7-0.9-2.3-1.6s-1.2-1.5-1.5-2.3s-0.5-1.8-0.5-2.9v-0.1c0-1,0.2-2,0.5-2.9
			c0.4-0.9,0.9-1.7,1.5-2.4c0.7-0.7,1.4-1.2,2.3-1.6c0.9-0.4,1.9-0.6,2.9-0.6s2,0.2,2.9,0.6c0.9,0.4,1.7,0.9,2.3,1.6
			c0.7,0.7,1.2,1.5,1.5,2.3c0.4,0.9,0.5,1.8,0.5,2.9v0.1c0,1-0.2,2-0.5,2.9c-0.4,0.9-0.9,1.7-1.5,2.4c-0.7,0.7-1.4,1.2-2.3,1.6
			C290.2,206.1,289.2,206.3,288.2,206.3z M288.2,205c0.8,0,1.6-0.2,2.3-0.5c0.7-0.3,1.3-0.8,1.9-1.3c0.5-0.5,0.9-1.2,1.2-1.9
			s0.4-1.5,0.4-2.4v-0.1c0-0.9-0.1-1.7-0.4-2.4c-0.3-0.8-0.7-1.4-1.2-2c-0.5-0.6-1.2-1-1.9-1.3c-0.7-0.3-1.5-0.5-2.3-0.5
			c-0.8,0-1.6,0.2-2.3,0.5c-0.7,0.3-1.3,0.8-1.9,1.3c-0.5,0.5-0.9,1.2-1.2,1.9s-0.4,1.5-0.4,2.4v0.1c0,0.9,0.2,1.7,0.4,2.4
			c0.3,0.8,0.7,1.4,1.2,2c0.5,0.6,1.2,1,1.9,1.3C286.6,204.9,287.4,205,288.2,205z"/>
		<path d="M299.8,191.7h1.4v2.7c0.5-0.8,1.1-1.5,2-2.1c0.8-0.6,1.9-0.9,3.2-0.9c0.9,0,1.7,0.1,2.4,0.4c0.7,0.3,1.3,0.7,1.8,1.2
			c0.5,0.5,0.9,1.1,1.1,1.9c0.3,0.7,0.4,1.5,0.4,2.4v8.7h-1.4v-8.5c0-1.5-0.4-2.7-1.2-3.5c-0.8-0.9-1.9-1.3-3.4-1.3
			c-0.7,0-1.4,0.1-2,0.4c-0.6,0.3-1.1,0.6-1.6,1s-0.8,1-1,1.6c-0.3,0.6-0.4,1.3-0.4,2.1v8.2h-1.4V191.7z"/>
		<path d="M321.2,206.3c-0.7,0-1.3-0.1-2-0.3c-0.7-0.2-1.2-0.5-1.8-0.8c-0.5-0.4-0.9-0.8-1.3-1.4s-0.5-1.2-0.5-2v-0.1
			c0-0.7,0.2-1.4,0.5-2c0.3-0.6,0.7-1.1,1.3-1.5c0.5-0.4,1.2-0.7,2-0.9c0.8-0.2,1.6-0.3,2.5-0.3c1,0,1.9,0.1,2.6,0.2
			c0.7,0.1,1.4,0.3,2.1,0.4v-0.6c0-1.4-0.4-2.5-1.2-3.3c-0.8-0.7-2-1.1-3.5-1.1c-0.9,0-1.7,0.1-2.4,0.3c-0.7,0.2-1.4,0.5-2.1,0.8
			l-0.5-1.2c0.8-0.4,1.6-0.7,2.4-0.9c0.8-0.2,1.7-0.3,2.7-0.3c2,0,3.5,0.5,4.5,1.6c1,1,1.5,2.3,1.5,4v8.9h-1.3v-2.4
			c-0.2,0.3-0.5,0.7-0.9,1c-0.3,0.3-0.7,0.6-1.2,0.9c-0.4,0.3-1,0.5-1.5,0.6C322.5,206.3,321.9,206.3,321.2,206.3z M321.3,205
			c0.7,0,1.4-0.1,2.1-0.3c0.7-0.2,1.2-0.5,1.7-0.9c0.5-0.4,0.9-0.8,1.2-1.4s0.4-1.1,0.4-1.8V199c-0.6-0.1-1.3-0.3-2.1-0.4
			c-0.8-0.1-1.7-0.2-2.7-0.2c-1.5,0-2.7,0.3-3.5,0.9s-1.2,1.4-1.2,2.4v0.1c0,0.5,0.1,1,0.3,1.4c0.2,0.4,0.5,0.7,0.9,1
			c0.4,0.3,0.8,0.5,1.3,0.6C320.2,204.9,320.8,205,321.3,205z"/>
		<path d="M333.1,185.6h1.4V206h-1.4V185.6z"/>
		<path d="M348.6,186.4h1.5v18.3h11.5v1.3h-12.9V186.4z"/>
		<path d="M371.9,206.3c-1.1,0-2-0.2-2.9-0.6c-0.9-0.4-1.7-0.9-2.3-1.6s-1.2-1.5-1.5-2.3s-0.5-1.8-0.5-2.9v-0.1c0-1,0.2-2,0.5-2.9
			c0.4-0.9,0.9-1.7,1.5-2.4c0.7-0.7,1.4-1.2,2.3-1.6c0.9-0.4,1.9-0.6,2.9-0.6s2,0.2,2.9,0.6c0.9,0.4,1.7,0.9,2.3,1.6
			c0.7,0.7,1.2,1.5,1.5,2.3c0.4,0.9,0.5,1.8,0.5,2.9v0.1c0,1-0.2,2-0.5,2.9c-0.4,0.9-0.9,1.7-1.5,2.4c-0.7,0.7-1.4,1.2-2.3,1.6
			C374,206.1,373,206.3,371.9,206.3z M372,205c0.8,0,1.6-0.2,2.3-0.5c0.7-0.3,1.3-0.8,1.9-1.3c0.5-0.5,0.9-1.2,1.2-1.9
			s0.4-1.5,0.4-2.4v-0.1c0-0.9-0.1-1.7-0.4-2.4c-0.3-0.8-0.7-1.4-1.2-2c-0.5-0.6-1.2-1-1.9-1.3c-0.7-0.3-1.5-0.5-2.3-0.5
			c-0.8,0-1.6,0.2-2.3,0.5c-0.7,0.3-1.3,0.8-1.9,1.3c-0.5,0.5-0.9,1.2-1.2,1.9s-0.4,1.5-0.4,2.4v0.1c0,0.9,0.2,1.7,0.4,2.4
			c0.3,0.8,0.7,1.4,1.2,2c0.5,0.6,1.2,1,1.9,1.3C370.4,204.9,371.1,205,372,205z"/>
		<path d="M382,191.7h1.6l5.4,12.7l5.5-12.7h1.5l-6.4,14.4h-1.2L382,191.7z"/>
		<path d="M405.8,206.3c-0.9,0-1.8-0.2-2.7-0.5c-0.9-0.4-1.6-0.9-2.2-1.5s-1.2-1.4-1.5-2.3s-0.6-1.9-0.6-3v-0.1c0-1,0.2-2,0.5-2.9
			s0.8-1.7,1.4-2.4s1.3-1.2,2.1-1.6s1.7-0.6,2.7-0.6c1,0,1.9,0.2,2.7,0.6c0.8,0.4,1.5,0.9,2.1,1.6c0.6,0.7,1,1.5,1.3,2.4
			c0.3,0.9,0.5,1.9,0.5,3c0,0.1,0,0.2,0,0.3c0,0.1,0,0.2,0,0.3h-11.8c0.1,0.9,0.3,1.7,0.6,2.4c0.3,0.7,0.8,1.3,1.3,1.8
			c0.5,0.5,1.1,0.8,1.7,1.1c0.6,0.2,1.3,0.4,2,0.4c1.1,0,2.1-0.2,2.8-0.6c0.8-0.4,1.5-1,2.1-1.6l1,0.8c-0.7,0.8-1.6,1.4-2.5,1.9
			C408.3,206.1,407.1,206.3,405.8,206.3z M410.6,198.2c-0.1-0.7-0.2-1.4-0.4-2.1s-0.6-1.2-1-1.8s-0.9-0.9-1.6-1.2
			c-0.6-0.3-1.3-0.5-2.2-0.5c-0.7,0-1.4,0.1-2,0.4c-0.6,0.3-1.2,0.7-1.6,1.2s-0.8,1.1-1.1,1.8c-0.3,0.7-0.5,1.4-0.5,2.2H410.6z"/>
		<path d="M415.8,203.6h1.8v2.4h-1.8V203.6z"/>
	</g>
</g>
<g>
	<path class="st0" d="M0.7,136h2.6l15.1,22.2L33.5,136h2.6v37.5h-2.8v-32.6l-14.8,21.6h-0.2L3.4,140.9v32.6H0.7V136z"/>
	<g>
		<path class="st0" d="M117.3,87.7h2.8v34.9h22v2.6h-24.8V87.7z"/>
		<path class="st0" d="M146.7,106.6v-0.1c0-10.6,7.9-19.4,18.8-19.4c6.7,0,10.7,2.5,14.6,6l-2,2c-3.3-3.2-7-5.5-12.6-5.5
			c-9,0-15.8,7.3-15.8,16.8v0.1c0,9.5,6.9,16.9,15.9,16.9c5.4,0,9.1-2.1,12.9-5.8l1.9,1.8c-4,3.9-8.3,6.5-14.9,6.5
			C154.6,125.9,146.7,117.3,146.7,106.6z"/>
		<path class="st0" d="M230.2,87.7h2.6l25.9,32.6V87.7h2.7v37.5h-2.1l-26.4-33.3v33.3h-2.7V87.7z"/>
		<path class="st0" d="M272.6,87.7h12.5c11.8,0,19.9,8.1,19.9,18.7v0.1c0,10.6-8.1,18.8-19.9,18.8h-12.5V87.7z M285.1,122.6
			c10.5,0,17-7.1,17-16.1v-0.1c0-8.9-6.6-16.2-17-16.2h-9.7v32.4H285.1z"/>
		<path class="st0" d="M120,154.9v-0.1c0-10.6,7.9-19.4,18.8-19.4c6.7,0,10.7,2.5,14.6,6l-2,2c-3.3-3.2-7-5.5-12.6-5.5
			c-9,0-15.8,7.3-15.8,16.8v0.1c0,9.5,6.9,16.9,15.9,16.9c5.4,0,9.1-2.1,12.9-5.8l1.9,1.8c-4,3.9-8.3,6.5-14.9,6.5
			C127.9,174.2,120,165.6,120,154.9z"/>
		<path class="st0" d="M99.4,138.6H86.3V136h28.9v2.6h-13.1v34.9h-2.8V138.6z"/>
		<path class="st0" d="M161.7,136h2.8v17.4h24V136h2.8v37.5h-2.8v-17.6h-24v17.6h-2.8V136z"/>
		<path class="st0" d="M202.5,136h2.6l15.1,22.2l15.1-22.2h2.6v37.5H235v-32.6l-14.8,21.6H220l-14.8-21.6v32.6h-2.7V136z"/>
		<path class="st0" d="M291.3,136h2.8v24.7L318,136h3.8l-16.4,16.6l17.1,21h-3.6l-15.4-19l-9.3,9.4v9.5h-2.8V136z"/>
		<path class="st0" d="M330,136h2.8v37.5H330V136z"/>
		<path class="st0" d="M344.3,136h2.6l25.9,32.6V136h2.7v37.5h-2.1L347,140.2v33.3h-2.7V136z"/>
		<path class="st0" d="M385,154.9v-0.1c0-10.1,7.3-19.4,18.5-19.4c6.1,0,10,1.8,13.7,4.9l-1.8,2.1c-2.9-2.6-6.4-4.5-12.1-4.5
			c-9.1,0-15.5,7.7-15.5,16.8v0.1c0,9.7,6.1,16.9,16.1,16.9c4.8,0,9.2-2,12-4.3v-10.8h-12.5v-2.6h15.2v14.5c-3.4,3-8.6,5.6-14.7,5.6
			C392,174.2,385,165.4,385,154.9z"/>
		<polygon class="st0" points="91.9,87.4 89.2,87.4 71.8,125.2 74.7,125.2 90.5,90.5 106.3,125.2 109.4,125.2 		"/>
		<polygon class="st0" points="64.2,135.7 61.5,135.7 44,173.5 46.9,173.5 62.8,138.8 78.6,173.5 81.7,173.5 		"/>
		<polygon class="st0" points="265.9,135.7 263.2,135.7 245.8,173.5 248.7,173.5 264.5,138.8 280.3,173.5 283.4,173.5 		"/>
		<polygon class="st0" points="204.8,87.4 202.2,87.4 184.7,125.2 187.6,125.2 203.4,90.5 219.3,125.2 222.3,125.2 		"/>
		<polygon class="st0" points="329,87.4 326.3,87.4 308.9,125.2 311.8,125.2 327.6,90.5 343.4,125.2 346.5,125.2 		"/>
	</g>
</g>
</svg>
